<?xml version="1.0" standalone="no"?>
<!DOCTYPE svg PUBLIC "-//W3C//DTD SVG 20010904//EN"
 "http://www.w3.org/TR/2001/REC-SVG-20010904/DTD/svg10.dtd">
<svg version="1.0" xmlns="http://www.w3.org/2000/svg"
 width="7001.000000pt" height="4001.000000pt" viewBox="0 0 7001.000000 4001.000000"
 preserveAspectRatio="xMidYMid meet">

<g transform="translate(0.000000,4001.000000) scale(0.100000,-0.100000)"
fill="#000000" stroke="none">
<path d="M4266 39991 c8 -7 1487 -957 2654 -1704 223 -143 409 -263 415 -268
5 -5 -775 -8 -1910 -7 l-1920 3 -1747 983 c-962 540 -1750 982 -1753 982 -3 0
-5 -15 -5 -33 l0 -33 1133 -636 1132 -636 3 -1657 c2 -1575 1 -1657 -15 -1653
-10 3 -518 235 -1130 517 -611 281 -1114 511 -1117 511 -3 0 -6 -12 -6 -27 1
-27 32 -43 1135 -548 l1134 -520 1 -1662 c0 -965 -4 -1663 -9 -1663 -8 0 -563
197 -1491 530 -589 211 -756 270 -764 270 -4 0 -6 -12 -4 -26 3 -25 23 -34
448 -186 245 -87 735 -263 1090 -390 355 -127 664 -237 688 -245 l42 -15 0
-1664 c0 -1339 -2 -1664 -13 -1664 -7 0 -44 9 -82 19 -39 11 -241 63 -450 116
-209 53 -678 173 -1042 266 -363 93 -666 169 -672 169 -6 0 -11 -11 -11 -24 0
-29 -255 40 1800 -484 l465 -119 3 -1666 c1 -917 -1 -1667 -5 -1667 -8 0 -110
16 -1507 230 -395 60 -727 110 -737 110 -14 0 -19 -7 -19 -25 0 -14 5 -25 11
-25 5 0 376 -56 822 -124 447 -69 953 -146 1125 -173 l312 -47 0 -1669 0
-1669 -92 6 c-51 3 -541 29 -1088 56 -547 27 -1016 51 -1042 53 -46 4 -48 3
-48 -22 l0 -27 1048 -52 c576 -30 1086 -56 1135 -59 l87 -6 0 -1668 0 -1669
-30 0 c-16 0 -512 -25 -1101 -55 -589 -30 -1086 -55 -1105 -55 -30 0 -34 -3
-34 -25 0 -23 4 -25 43 -25 24 0 526 25 1116 55 590 30 1081 55 1092 55 19 0
19 -24 17 -1667 l-3 -1667 -240 -37 c-132 -21 -627 -96 -1100 -169 -473 -72
-875 -133 -892 -137 -26 -4 -33 -10 -33 -29 0 -13 6 -24 13 -24 10 0 1093 165
1940 296 159 24 295 44 303 44 12 0 14 -227 14 -1665 l0 -1664 -37 -10 c-43
-12 -679 -174 -1238 -316 -373 -95 -883 -226 -957 -246 -31 -8 -38 -14 -38
-34 0 -14 3 -25 7 -25 3 0 508 128 1122 285 614 157 1122 285 1129 285 9 0 12
-357 12 -1663 l0 -1663 -962 -344 c-530 -190 -1039 -372 -1133 -405 -160 -57
-170 -62 -173 -88 -2 -15 -1 -27 3 -27 3 0 351 124 773 275 422 151 929 332
1127 403 l360 128 3 -1656 c1 -910 0 -1660 -2 -1665 -2 -6 -513 -244 -1135
-530 -1116 -513 -1131 -520 -1131 -549 0 -18 4 -26 13 -23 6 2 489 224 1072
492 583 268 1088 500 1122 516 l63 28 0 -1658 0 -1659 -1135 -637 -1135 -637
0 -34 c0 -19 2 -34 4 -34 2 0 287 159 632 353 1597 898 2822 1586 2851 1601
29 15 191 16 1944 14 l1912 -3 -159 -101 c-88 -56 -564 -361 -1059 -679 -495
-318 -1044 -670 -1220 -783 -705 -452 -785 -504 -785 -508 0 -2 19 -4 43 -4
39 0 117 48 1002 616 528 339 1257 807 1621 1040 l661 424 1928 -2 1929 -3
-240 -179 c-131 -98 -754 -564 -1383 -1035 -1130 -845 -1143 -856 -1104 -859
40 -3 74 22 1429 1037 l1389 1040 1933 1 c1062 0 1932 -2 1932 -4 0 -4 -67
-65 -1360 -1225 -492 -442 -906 -814 -920 -828 l-25 -24 41 3 c39 3 66 25 459
378 230 206 423 380 429 385 6 6 184 166 395 355 211 190 538 483 725 652
l341 307 1938 1 c1638 0 1937 -2 1930 -14 -4 -7 -404 -458 -889 -1002 -484
-544 -895 -1006 -913 -1027 l-33 -37 34 0 c33 0 68 37 829 892 437 491 854
959 927 1040 l133 148 1939 0 c1067 0 1940 -2 1940 -5 0 -3 -310 -470 -689
-1038 -576 -862 -686 -1033 -669 -1035 10 -2 26 -1 33 2 8 3 325 471 705 1041
l690 1035 1945 0 c1070 0 1945 -3 1945 -6 0 -3 -201 -457 -446 -1007 -245
-551 -453 -1017 -460 -1035 -14 -32 -14 -32 15 -32 28 0 32 7 491 1040 l464
1040 1948 0 c1071 0 1948 -3 1948 -7 0 -7 -437 -1974 -455 -2051 -5 -21 -3
-23 22 -20 l28 3 230 1035 230 1035 1953 3 1952 2 0 -1040 0 -1040 25 0 25 0
0 1040 0 1040 1952 -2 1953 -3 230 -1035 231 -1035 27 -3 c24 -3 27 -1 22 20
-8 35 -445 1999 -452 2031 l-5 27 1949 0 1950 0 463 -1040 c459 -1032 463
-1040 491 -1040 29 0 29 0 15 32 -7 18 -214 484 -460 1034 -245 551 -446 1005
-446 1008 0 3 875 6 1945 6 l1944 0 692 -1036 c380 -569 697 -1038 704 -1041
8 -2 23 -3 34 -1 17 2 -86 162 -669 1035 -380 567 -690 1034 -690 1037 0 3
872 6 1938 6 l1938 0 50 -52 c28 -29 125 -136 215 -238 90 -102 184 -209 209
-237 25 -28 346 -389 714 -802 638 -716 671 -751 704 -751 l33 0 -28 34 c-15
18 -246 278 -513 577 -1166 1308 -1300 1459 -1300 1464 0 3 872 5 1938 5
l1937 -1 390 -351 c611 -550 1126 -1013 1404 -1262 141 -125 279 -249 306
-275 186 -172 213 -192 250 -189 35 3 18 19 -962 900 -549 493 -1007 905
-1018 915 -11 10 -80 71 -153 136 -72 66 -132 121 -132 123 0 2 870 4 1933 4
l1932 -1 871 -652 c2110 -1580 1901 -1427 1947 -1427 35 0 39 2 27 14 -15 13
-1463 1098 -2310 1729 -228 170 -422 316 -430 323 -12 12 276 14 1915 14
l1930 0 780 -501 c429 -276 1156 -742 1615 -1037 816 -524 836 -537 890 -540
l55 -4 -50 33 c-27 17 -311 199 -630 404 -1910 1226 -2255 1448 -2398 1539
l-159 101 1911 3 c1755 2 1915 1 1944 -14 42 -22 3265 -1832 3295 -1850 21
-14 22 -13 22 23 l-1 38 -1049 589 -1050 588 0 1659 0 1658 63 -28 c34 -16
504 -231 1044 -480 539 -248 984 -451 987 -451 3 0 6 12 6 28 -1 26 -31 41
-1047 507 -575 264 -1047 484 -1049 490 -2 5 -3 755 -2 1666 l3 1656 245 -88
c135 -48 604 -216 1044 -373 439 -157 800 -286 802 -286 8 0 3 49 -5 55 -9 5
-1753 630 -1988 712 l-103 36 0 1664 c0 1275 3 1663 12 1663 6 0 217 -52 467
-116 1013 -258 1587 -405 1604 -410 13 -4 17 1 17 23 l0 28 -698 177 c-760
194 -1306 333 -1364 349 l-38 10 0 1664 c0 1459 2 1665 15 1665 8 0 189 -27
402 -60 213 -32 669 -102 1013 -155 344 -52 635 -97 648 -100 19 -5 22 -1 22
22 l0 28 -878 134 c-482 74 -953 146 -1047 161 l-170 26 -3 1667 -2 1667 37
-1 c21 0 494 -23 1051 -52 l1012 -52 0 27 c0 26 -3 28 -45 28 -24 0 -484 22
-1021 50 -537 27 -989 50 -1005 50 l-29 0 0 1669 0 1668 93 6 c50 3 513 27
1027 52 514 26 945 49 958 51 15 3 22 11 22 29 0 23 -1 24 -68 19 -50 -4
-2007 -104 -2028 -104 -2 0 -4 750 -4 1668 l0 1667 223 34 c122 19 593 91
1047 161 l825 126 3 28 c3 26 1 27 -25 22 -15 -3 -296 -46 -623 -96 -327 -50
-784 -120 -1014 -156 -231 -35 -423 -64 -428 -64 -4 0 -7 750 -6 1666 l3 1667
1045 267 1045 266 3 29 c3 25 1 27 -20 21 -13 -3 -255 -65 -538 -137 -283 -72
-741 -189 -1017 -260 -277 -71 -507 -129 -513 -129 -7 0 -10 537 -10 1664 l0
1664 158 56 c2099 750 1937 690 1940 721 3 23 0 27 -15 23 -10 -3 -478 -170
-1041 -372 -563 -201 -1028 -366 -1033 -366 -5 0 -9 650 -9 1663 l1 1662 186
85 c103 47 574 263 1047 481 825 379 861 397 864 424 3 23 0 27 -15 22 -17 -5
-2055 -941 -2074 -953 -5 -3 -8 680 -7 1656 l3 1662 1039 583 c571 321 1043
588 1048 593 5 5 8 23 6 39 l-3 30 -435 -244 c-239 -135 -617 -347 -840 -472
-223 -125 -776 -437 -1230 -692 l-825 -464 -1912 -3 c-1052 -1 -1913 1 -1913
5 0 5 73 55 163 112 89 57 780 500 1536 985 1364 875 1373 881 1329 884 -48 3
112 104 -2663 -1678 -221 -141 -421 -269 -446 -283 l-46 -27 -1924 2 -1923 3
1249 935 c688 515 1283 960 1324 990 l73 55 -40 3 c-44 3 -44 3 -1697 -1237
-319 -239 -676 -506 -793 -593 l-214 -158 -1929 0 c-1227 0 -1928 3 -1924 10
3 5 290 265 638 577 348 312 810 727 1027 923 218 195 427 383 465 417 l70 63
-40 0 c-39 0 -66 -24 -1020 -881 -539 -485 -1037 -932 -1108 -995 l-127 -114
-1935 0 c-1064 0 -1935 3 -1935 6 0 3 31 40 69 82 38 42 423 475 856 962 433
487 799 897 813 913 l26 27 -36 0 c-33 0 -44 -9 -132 -107 -53 -60 -450 -506
-884 -993 l-787 -885 -1943 -3 c-1068 -1 -1942 0 -1942 3 0 3 297 451 660 995
658 986 660 990 628 990 -32 -1 -44 -18 -696 -995 l-662 -995 -1946 0 c-1864
0 -1945 1 -1940 18 3 10 201 456 440 992 424 951 434 975 409 978 -14 2 -27 1
-30 -1 -2 -3 -200 -445 -440 -984 -239 -538 -440 -984 -445 -990 -8 -10 -411
-13 -1954 -13 -1069 0 -1944 3 -1944 8 0 6 417 1887 435 1960 5 21 3 23 -22
20 l-28 -3 -220 -990 -221 -990 -1949 0 -1950 0 -3 993 -2 992 -25 0 -25 0 -2
-992 -3 -993 -1950 0 -1949 0 -221 990 -220 990 -28 3 c-24 3 -28 0 -23 -15 4
-16 419 -1878 433 -1945 l6 -28 -1947 0 -1946 0 -13 23 c-8 12 -206 454 -441
982 -235 528 -431 966 -435 974 -5 7 -20 11 -33 9 -25 -3 -17 -23 408 -978
239 -536 437 -982 440 -992 5 -17 -74 -18 -1935 -18 -1902 0 -1941 0 -1958 19
-10 11 -310 458 -668 995 -639 959 -651 975 -683 976 -32 0 -30 -3 628 -990
363 -544 660 -992 660 -995 0 -3 -872 -5 -1939 -5 l-1938 0 -75 83 c-41 45
-115 127 -164 182 -49 56 -217 245 -374 421 -157 175 -482 541 -724 812 -425
477 -439 492 -474 492 l-36 0 31 -32 c17 -18 344 -386 728 -818 384 -432 764
-858 844 -948 80 -90 150 -170 154 -178 7 -12 -259 -14 -1928 -14 l-1935 0
-103 92 c-56 50 -183 164 -282 253 -99 90 -540 485 -980 880 -440 395 -812
729 -826 742 -20 18 -35 24 -62 21 -36 -3 -32 -7 370 -368 224 -201 587 -527
807 -725 220 -198 526 -473 680 -611 155 -138 287 -258 295 -267 12 -16 -120
-17 -1917 -17 l-1930 0 -229 170 c-125 93 -724 541 -1331 995 -1074 804 -1104
826 -1143 823 -39 -3 -21 -17 1283 -993 l1322 -990 -1923 -3 -1924 -2 -41 23
c-23 13 -722 461 -1555 995 -1445 928 -1515 972 -1559 972 -27 0 -42 -4 -36
-9z m-543 -2167 c760 -426 1441 -809 1512 -849 72 -40 162 -90 200 -112 l70
-39 3 -1497 2 -1496 -117 55 c-65 30 -782 360 -1593 732 l-1475 678 -3 1652
c-1 1101 1 1652 8 1652 6 0 632 -349 1393 -776z m64125 -876 l-3 -1652 -1225
-563 c-674 -310 -1358 -625 -1520 -700 -162 -75 -328 -151 -368 -169 l-72 -34
2 1496 3 1496 100 57 c55 32 370 209 700 394 330 185 996 558 1480 831 484
272 886 495 893 495 10 1 12 -332 10 -1651z m-60071 789 c397 -255 884 -567
1248 -800 138 -88 266 -170 285 -182 352 -229 493 -315 505 -305 10 8 13 6 11
-7 0 -11 5 -17 16 -17 10 1 15 -2 13 -7 -7 -10 84 -73 93 -65 3 4 0 17 -7 29
-13 20 -13 21 2 8 10 -8 17 -9 17 -3 0 10 -113 84 -126 82 -3 -1 -11 5 -17 13
-7 8 -100 70 -207 139 -107 69 -611 392 -1120 720 -509 327 -935 600 -945 606
-15 9 459 11 1907 12 l1926 0 700 -524 c1069 -801 1324 -989 1339 -989 7 0 11
-2 8 -5 -6 -6 77 -72 90 -72 6 0 17 -9 24 -19 8 -11 21 -17 30 -13 9 3 13 2 9
-3 -12 -13 13 -37 26 -26 8 7 17 4 27 -11 36 -52 46 -62 46 -45 0 9 -4 14 -9
11 -12 -7 -10 10 2 22 7 7 3 17 -12 30 l-23 19 18 -21 c9 -11 14 -24 10 -27
-6 -6 -38 31 -37 43 1 8 -97 85 -109 86 -7 0 -21 -4 -32 -8 -19 -9 -19 -8 -1
6 23 18 12 39 -17 31 -15 -4 -18 -3 -9 3 9 6 -274 224 -989 760 l-1002 752
1929 0 1930 0 270 -242 c148 -132 307 -276 354 -318 83 -75 609 -547 780 -699
47 -42 103 -92 125 -112 149 -134 178 -158 186 -153 5 3 8 0 7 -7 -2 -7 25
-34 59 -60 34 -26 59 -49 57 -52 -3 -3 0 -8 6 -12 6 -3 9 -1 8 6 -2 7 6 15 17
17 18 4 18 3 5 -14 -12 -15 -13 -16 -1 -9 11 6 13 4 8 -8 -4 -12 -2 -14 10
-10 11 4 14 3 9 -5 -4 -7 -1 -15 8 -18 9 -3 13 -11 9 -17 -4 -6 -1 -7 7 -2 10
6 9 11 -6 23 -18 13 -17 14 11 9 l30 -6 -28 13 c-15 6 -24 16 -20 20 5 4 1 6
-7 4 -8 -2 -14 3 -12 10 2 11 -38 33 -56 31 -16 -3 -23 2 -17 11 4 7 14 6 28
-1 16 -7 14 -3 -8 16 -16 15 -66 60 -110 99 -158 143 -331 299 -370 335 -22
20 -157 142 -300 270 -143 129 -298 269 -345 311 -47 42 -177 159 -289 261
-113 101 -235 210 -273 243 -37 32 -68 60 -68 62 0 2 870 4 1933 4 l1932 0
170 -191 c94 -106 175 -197 180 -203 6 -6 177 -198 380 -426 203 -228 374
-420 380 -426 5 -6 59 -65 119 -132 60 -67 113 -120 118 -119 6 1 12 -6 13
-16 4 -22 141 -164 158 -164 7 0 14 9 14 20 1 11 -1 17 -4 13 -3 -3 -19 14
-35 37 -40 56 -58 70 -74 56 -8 -7 -14 -7 -19 1 -4 6 -1 9 7 8 31 -7 6 30
-112 163 -112 127 -757 854 -1073 1209 -67 74 -127 143 -135 153 -14 16 78 17
1924 17 l1939 -1 500 -750 c275 -413 510 -761 521 -774 12 -13 20 -25 18 -27
-2 -2 7 -17 20 -33 19 -24 27 -27 44 -20 l21 10 -20 25 c-12 14 -17 19 -13 11
5 -9 3 -12 -5 -7 -6 4 -9 11 -6 16 8 14 -25 61 -38 53 -6 -3 -7 -1 -3 6 4 7
-187 304 -470 729 -262 394 -483 727 -492 740 l-14 22 1941 -2 1942 -3 225
-505 c271 -608 414 -928 464 -1035 21 -44 39 -85 41 -91 3 -8 12 -9 26 -3 15
5 21 14 17 24 -3 8 -10 15 -15 15 -4 0 -6 7 -3 15 4 10 0 15 -12 15 -14 0 -16
2 -6 9 11 7 11 10 0 22 -7 8 -14 21 -16 30 -1 8 -151 350 -332 759 -182 408
-330 745 -330 746 0 2 874 4 1943 4 l1942 0 172 -768 c187 -831 180 -799 186
-825 2 -9 9 -23 17 -30 10 -10 12 -9 7 5 -3 10 -1 20 5 24 7 4 8 3 4 -4 -4 -7
-2 -12 3 -12 14 0 14 37 1 45 -6 4 -8 10 -5 15 3 5 -71 353 -165 774 -93 422
-170 768 -170 771 0 3 875 5 1945 5 l1945 0 0 -815 c0 -537 3 -815 10 -815 6
0 11 10 11 23 l2 22 4 -22 c2 -13 9 -23 14 -23 5 0 9 319 9 815 l0 815 1945 0
c1070 0 1945 -2 1945 -4 0 -3 -74 -339 -164 -748 -188 -851 -181 -816 -179
-846 2 -15 -2 -20 -10 -16 -7 4 -10 5 -7 1 3 -3 8 -5 11 -4 3 1 14 -5 25 -13
10 -8 16 -10 12 -6 -4 5 -3 15 2 21 6 7 11 30 13 51 1 22 5 41 8 44 5 4 288
1252 331 1463 l12 57 1944 0 c1551 0 1943 -3 1939 -12 -3 -7 -145 -330 -317
-718 -172 -388 -313 -711 -313 -717 0 -7 -4 -13 -8 -13 -4 0 -13 -16 -19 -36
-10 -30 -10 -38 1 -46 11 -8 10 -9 -4 -4 -19 6 -39 -28 -30 -51 3 -7 0 -13 -6
-13 -12 0 -32 -42 -36 -73 -1 -9 5 -23 14 -30 13 -10 14 -10 6 3 -18 27 -12
54 15 60 29 7 25 -2 195 380 433 970 565 1263 568 1266 2 2 875 3 1940 2
l1937 -3 -489 -735 c-269 -404 -487 -738 -485 -742 3 -5 0 -8 -6 -8 -6 0 -14
-8 -17 -17 -4 -10 -15 -27 -25 -38 -10 -10 -16 -25 -14 -32 3 -7 0 -15 -6 -19
-7 -5 -8 -2 -3 6 5 9 4 11 -4 6 -16 -10 -4 -25 19 -23 12 1 18 7 16 14 -3 8 1
10 11 6 10 -4 14 -2 9 5 -3 6 1 15 11 20 15 9 15 12 3 26 -10 13 -11 19 -1 29
10 9 11 8 6 -4 -13 -34 13 -27 36 9 14 20 59 87 100 147 42 61 261 388 488
728 228 340 418 620 425 623 6 2 879 3 1939 2 l1928 -3 -102 -115 c-56 -63
-134 -151 -174 -195 -70 -78 -597 -670 -719 -809 -34 -39 -121 -137 -194 -218
-75 -85 -130 -154 -126 -160 4 -6 3 -8 -3 -5 -14 9 -133 -125 -133 -149 0 -16
-2 -17 -10 -4 -5 8 -10 10 -10 4 0 -17 26 -37 28 -21 4 45 16 66 25 42 4 -8 3
-15 -2 -15 -4 0 -8 -6 -8 -14 0 -9 12 -2 29 16 16 17 26 33 22 37 -3 3 -12 -2
-19 -13 -13 -18 -14 -18 -12 2 0 11 5 18 9 16 4 -3 8 2 8 10 0 9 8 16 18 16
14 0 15 -2 2 -10 -13 -8 -13 -10 1 -10 20 0 42 24 31 34 -4 4 -1 6 5 4 7 -2
61 51 120 118 607 680 769 861 778 870 5 6 123 138 260 292 l250 282 1933 0
c1062 0 1932 -1 1932 -3 0 -3 -154 -141 -233 -209 -12 -11 -40 -36 -62 -56
-22 -21 -89 -82 -150 -136 -60 -55 -128 -115 -150 -135 -22 -20 -218 -196
-435 -392 -217 -195 -444 -400 -505 -455 -60 -55 -124 -113 -142 -128 -18 -16
-30 -33 -26 -39 3 -6 1 -7 -5 -3 -14 8 -129 -104 -129 -127 0 -15 2 -16 17 -2
9 8 21 12 25 8 5 -5 3 1 -5 11 -14 18 -14 19 5 8 17 -9 25 -6 55 23 19 19 107
98 195 176 181 160 198 175 610 544 450 404 691 620 785 705 47 42 118 107
159 143 l75 67 1930 0 c1061 0 1927 -2 1925 -4 -2 -1 -474 -355 -1049 -786
-575 -430 -1051 -788 -1058 -794 -10 -10 -9 -16 6 -29 17 -16 20 -15 55 17 20
18 40 30 43 27 4 -3 4 2 1 11 -3 10 -1 20 5 24 7 4 8 3 4 -4 -9 -15 -1 -15 25
-1 11 5 16 15 13 21 -4 6 -3 8 4 4 11 -6 173 113 1421 1047 l623 467 1926 0
1925 0 -469 -301 c-469 -301 -1177 -756 -1523 -979 -101 -65 -187 -124 -191
-130 -4 -7 -10 -11 -14 -10 -9 2 -181 -106 -201 -127 -8 -8 -12 -19 -9 -25 4
-7 2 -8 -5 -4 -6 4 -8 12 -5 18 8 12 -58 -32 -68 -46 -3 -5 -14 -11 -23 -12
-27 -4 -31 -15 -13 -28 10 -7 14 -16 10 -21 -4 -4 3 -1 16 6 12 8 18 15 12 17
-15 5 -12 19 5 19 8 0 15 -4 15 -9 0 -5 5 -6 11 -2 8 4 8 9 0 17 -15 15 -14
30 2 20 21 -13 39 -12 63 4 24 15 35 41 12 27 -7 -4 -8 -3 -4 5 5 8 12 9 19 3
15 -11 329 187 320 202 -3 5 -1 6 5 2 6 -3 82 39 169 95 87 56 230 148 318
204 88 56 494 317 903 579 l743 476 1908 -2 1908 -3 -525 -295 c-456 -256
-663 -373 -1277 -719 -66 -37 -202 -115 -303 -172 -101 -57 -196 -111 -213
-119 -29 -16 -29 -16 -11 -33 10 -9 22 -14 27 -10 4 5 5 2 1 -5 -7 -11 -4 -11
12 -1 12 7 18 17 15 23 -3 5 -1 6 5 3 5 -4 79 31 164 78 l153 85 3 -1483 c1
-815 0 -1487 -2 -1492 -2 -6 -66 -39 -142 -75 -77 -35 -145 -71 -152 -80 -8
-8 -11 -9 -7 -3 4 9 1 11 -9 7 -9 -3 -16 -10 -16 -16 0 -5 -3 -7 -7 -5 -5 3
-37 -10 -73 -27 -54 -26 -65 -35 -63 -53 2 -13 -2 -23 -8 -23 -5 0 -8 4 -5 8
2 4 1 14 -5 22 -7 12 -9 12 -9 1 0 -7 -6 -11 -13 -8 -7 3 -24 -3 -37 -13 l-23
-18 24 2 c16 1 23 -4 21 -14 -3 -11 1 -11 16 3 10 9 21 14 25 11 4 -4 19 2 34
12 15 10 32 17 36 16 5 -1 5 2 2 8 -4 7 -1 10 6 9 23 -5 60 12 53 23 -4 6 -2
8 4 4 15 -9 93 24 85 37 -3 6 -1 7 6 3 16 -10 53 3 45 16 -4 6 -2 8 4 4 5 -3
54 14 107 39 54 25 99 45 101 45 2 0 3 -674 2 -1497 l-3 -1497 -60 -23 c-182
-69 -362 -135 -379 -138 -10 -2 -24 -9 -30 -15 -7 -5 -15 -7 -18 -4 -3 3 -9 1
-13 -5 -3 -6 1 -11 9 -11 9 0 16 -4 16 -10 0 -5 -8 -7 -17 -4 -17 5 -17 5 0
-6 23 -15 39 -3 31 23 -6 21 -6 21 9 3 10 -14 19 -17 33 -11 10 4 24 7 29 6 6
-1 2 5 -8 13 -16 12 -16 14 -2 20 11 4 14 2 9 -6 -5 -8 -2 -9 10 -5 10 4 15 3
11 -3 -3 -6 -5 -10 -3 -10 2 0 86 29 187 65 101 36 185 65 187 65 2 0 4 -674
4 -1499 l0 -1498 -163 -41 c-89 -23 -177 -45 -194 -48 -18 -4 -33 -11 -33 -16
0 -5 -4 -7 -9 -4 -13 8 -111 -25 -105 -35 8 -13 -10 -11 -25 4 -11 10 -12 9
-6 -1 19 -34 50 -31 286 28 129 33 237 60 242 60 4 0 7 -674 7 -1499 l0 -1499
-112 -16 c-62 -10 -120 -20 -128 -23 -8 -3 -37 -7 -63 -9 -27 -2 -57 -9 -67
-14 -10 -6 -26 -7 -34 -4 -9 4 -22 2 -29 -4 -6 -5 -22 -8 -34 -6 -29 5 -29 -2
-2 -17 17 -9 20 -8 14 2 -6 8 -4 10 4 4 9 -5 9 -11 3 -17 -7 -7 -18 -5 -33 6
-29 20 -45 21 -29 1 8 -10 9 -15 2 -15 -6 0 -16 8 -21 18 -8 13 -10 14 -11 2
0 -13 -1 -13 -10 0 -5 8 -10 11 -10 5 0 -5 5 -17 10 -25 7 -11 10 -11 10 -2 0
7 5 10 10 7 6 -4 7 -11 4 -17 -5 -8 -1 -9 12 -4 10 5 46 10 79 13 33 2 62 7
65 11 3 4 15 7 27 6 12 -1 89 9 170 22 81 13 154 24 161 24 9 0 12 -307 12
-1500 l0 -1500 -42 0 c-24 -1 -104 -5 -178 -11 -74 -6 -170 -11 -212 -11 -43
0 -80 -4 -84 -9 -3 -5 -10 -6 -16 -3 -7 4 -8 2 -4 -4 5 -8 0 -12 -13 -12 -11
0 -22 -4 -25 -9 -3 -4 6 -6 19 -3 15 2 25 0 25 -7 0 -7 5 -9 13 -4 6 4 23 6
37 5 22 -2 23 -1 7 8 -9 6 -27 9 -40 6 -21 -6 -21 -6 2 6 19 10 28 9 53 -5 25
-14 49 -16 166 -11 75 3 170 9 210 13 40 4 75 5 77 2 3 -2 5 -679 5 -1504 l0
-1500 -77 7 c-43 3 -149 9 -236 11 -122 4 -157 2 -157 -7 0 -8 -5 -5 -11 5
-12 21 -29 22 -29 2 0 -8 -7 -15 -15 -15 -8 0 -15 7 -15 15 0 13 -2 14 -14 3
-12 -11 -12 -13 0 -16 8 -2 14 -7 14 -12 0 -17 35 -4 42 15 6 19 6 19 7 -2 1
-27 19 -39 34 -24 9 9 7 10 -8 5 -11 -4 -17 -4 -14 0 12 13 48 15 43 3 -5 -14
44 -16 65 -3 9 6 12 5 8 -1 -7 -11 80 -23 172 -23 31 0 86 -3 124 -7 l67 -6 0
-1499 0 -1499 -32 6 c-107 19 -364 53 -370 49 -4 -3 -17 0 -29 7 -15 8 -19 8
-15 0 4 -6 3 -11 -3 -11 -5 0 -11 6 -14 13 -2 6 -8 9 -12 5 -13 -12 7 -30 28
-24 14 3 17 2 9 -6 -13 -13 -52 -1 -52 17 0 8 -4 16 -9 19 -5 3 -8 -5 -8 -19
-1 -14 3 -22 8 -20 4 3 11 0 14 -5 4 -6 17 -10 28 -9 12 1 31 -2 41 -6 13 -6
21 -4 24 4 3 10 6 10 12 2 5 -9 327 -70 373 -71 4 0 7 -675 7 -1501 0 -1424
-1 -1500 -17 -1495 -57 16 -351 88 -368 90 -12 1 -26 5 -32 9 -7 4 -14 -1 -18
-13 -4 -11 -11 -18 -16 -15 -5 4 -9 3 -9 -2 0 -4 33 -16 73 -26 39 -10 143
-36 230 -59 l157 -41 0 -1498 0 -1498 -27 9 c-16 4 -93 31 -172 59 -80 29
-151 49 -158 46 -8 -2 -12 -1 -9 3 2 4 -16 15 -40 24 -43 15 -45 15 -55 -4
-12 -23 -12 -23 21 -32 23 -6 24 -6 7 7 -16 13 -16 15 -2 21 11 4 14 2 9 -6
-5 -7 -2 -9 8 -6 8 4 21 2 29 -4 11 -8 10 -9 -3 -4 -12 3 -18 0 -18 -9 0 -8 3
-14 8 -14 4 1 10 0 15 -1 4 -1 10 -3 15 -5 4 -1 27 -11 52 -22 25 -11 107 -41
183 -68 l137 -48 0 -1498 0 -1498 -42 18 c-24 10 -103 46 -177 80 -149 69
-157 72 -153 53 1 -8 -2 -11 -8 -7 -5 3 -10 -1 -10 -10 0 -9 4 -14 9 -11 5 4
11 2 13 -2 5 -14 179 -93 189 -86 5 3 9 1 9 -4 0 -5 36 -26 81 -47 44 -21 83
-43 85 -49 2 -6 3 -678 2 -1493 l-3 -1482 -205 114 c-112 62 -208 111 -214
108 -5 -3 -6 -2 -3 4 3 5 -9 17 -27 26 -26 12 -36 13 -45 4 -9 -9 -11 -7 -5 8
4 11 4 17 0 13 -4 -3 -17 3 -28 14 -16 16 -22 17 -34 7 -8 -7 -14 -8 -13 -3 4
21 -2 35 -11 29 -5 -3 -10 -2 -10 4 0 5 -9 8 -20 6 -11 -2 -19 1 -17 8 1 7 -4
11 -10 10 -7 -2 -13 2 -13 7 0 6 -5 10 -10 10 -7 0 -7 -6 0 -19 7 -14 7 -22
-2 -27 -7 -5 -8 -3 -3 6 6 9 4 11 -4 6 -8 -5 -12 -3 -10 5 4 34 -1 43 -14 24
-10 -12 -16 -14 -21 -7 -4 7 -2 12 3 12 20 0 11 18 -17 39 l-28 19 4 -34 c4
-30 12 -38 71 -70 36 -20 92 -52 123 -71 33 -21 62 -32 69 -27 7 4 10 3 6 -3
-8 -13 53 -44 68 -36 5 4 7 3 3 -2 -8 -8 16 -25 107 -75 28 -16 97 -55 155
-87 58 -33 555 -313 1105 -623 550 -309 1002 -564 1004 -566 2 -2 -855 -4
-1906 -4 l-1910 0 -524 336 c-1451 931 -1700 1090 -1705 1084 -2 -3 -9 4 -17
14 -9 12 -19 16 -27 11 -8 -5 -11 -4 -6 3 8 13 -60 56 -79 48 -8 -3 -14 -2
-14 2 3 19 -2 23 -16 12 -9 -7 -18 -10 -22 -6 -3 3 -1 6 5 6 7 0 12 8 12 17 0
15 -1 15 -13 -2 -10 -12 -16 -14 -21 -7 -4 7 -2 12 5 12 7 0 4 7 -7 15 -17 12
-21 12 -32 -3 -12 -15 -13 -14 -10 13 3 28 1 30 -32 30 -19 0 -34 5 -33 11 1
6 -4 11 -11 11 -7 0 -13 -6 -13 -13 0 -7 4 -11 9 -8 4 3 8 1 8 -5 0 -5 13 -12
29 -16 17 -4 31 -14 34 -27 3 -11 10 -17 15 -14 6 3 13 -1 16 -10 4 -9 9 -14
12 -11 4 3 15 -3 27 -13 11 -11 23 -17 27 -15 5 3 11 -2 14 -11 4 -9 9 -14 13
-11 3 4 11 1 17 -7 6 -7 101 -71 211 -141 110 -70 236 -151 280 -180 102 -67
967 -623 1405 -903 184 -118 337 -216 339 -218 2 -2 -862 -4 -1920 -4 l-1925
0 -585 438 c-981 734 -1329 992 -1338 992 -5 0 -12 7 -15 16 -4 9 -13 14 -21
10 -8 -3 -14 -1 -12 5 1 6 -7 16 -18 22 -11 7 -23 16 -26 21 -4 5 -12 5 -19 1
-9 -5 -11 -4 -6 3 4 7 1 12 -8 12 -9 0 -15 3 -13 8 1 4 -1 7 -4 7 -3 0 -13 6
-22 14 -10 7 -17 12 -18 10 -6 -31 -6 -39 0 -39 4 0 21 -14 38 -30 22 -22 34
-27 39 -19 5 8 3 10 -7 4 -8 -5 -12 -6 -9 -2 9 10 25 2 25 -12 0 -8 9 -19 19
-25 11 -6 26 -18 35 -26 9 -8 433 -328 944 -710 l927 -695 -1926 -3 -1926 -2
-37 31 c-20 18 -74 67 -121 109 -135 122 -871 782 -1030 923 -80 71 -181 162
-225 202 -121 109 -153 136 -162 136 -4 -1 -8 3 -8 8 0 10 -87 89 -95 87 -3 0
-24 20 -48 45 -39 43 -45 46 -67 35 -13 -6 -20 -13 -14 -14 5 -2 16 1 23 8 10
7 16 8 21 0 3 -5 1 -10 -6 -10 -7 0 -5 -6 6 -13 12 -10 14 -16 7 -21 -7 -4
-12 -3 -12 2 0 6 -8 13 -17 16 -15 6 -15 4 2 -14 17 -18 20 -19 35 -5 16 14
18 14 23 1 4 -9 1 -18 -5 -22 -7 -5 -8 -2 -3 6 5 9 4 11 -3 6 -8 -5 4 -23 33
-52 26 -25 51 -42 57 -38 6 4 8 3 4 -4 -7 -11 151 -159 165 -155 5 2 8 -1 6
-7 -1 -5 27 -35 64 -67 109 -97 1262 -1134 1294 -1164 l30 -29 -1935 0 -1935
1 -495 555 c-832 934 -860 965 -860 955 0 -17 4 -26 12 -24 9 3 4 -25 -7 -34
-4 -4 -5 -3 -2 3 4 7 1 17 -7 23 -7 6 -11 22 -8 36 2 14 0 26 -7 26 -26 3 -30
4 -37 12 -4 4 -1 7 7 7 8 0 4 6 -9 16 -13 9 -19 20 -15 27 4 7 0 6 -10 -2 -14
-11 -20 -11 -32 -1 -25 21 -17 3 16 -35 17 -19 36 -32 42 -28 6 4 8 0 4 -10
-4 -11 1 -20 13 -27 11 -6 20 -17 20 -24 0 -21 37 -49 56 -42 15 6 15 4 3 -11
-12 -15 -12 -16 3 -10 11 4 15 2 12 -7 -5 -14 12 -34 730 -840 l499 -561
-1934 -3 c-1538 -2 -1936 1 -1945 10 -6 7 -222 328 -479 713 -257 385 -477
711 -489 725 -12 14 -30 42 -40 63 -13 25 -24 36 -34 32 -11 -4 -13 0 -9 16 4
14 2 18 -4 12 -29 -29 -8 -65 489 -811 276 -414 502 -755 502 -757 0 -3 -872
-5 -1939 -5 l-1938 0 -211 473 c-116 259 -250 558 -297 662 -47 105 -100 222
-117 262 -18 40 -36 69 -42 66 -5 -4 -7 0 -4 9 10 24 -7 44 -25 30 -7 -7 -17
-8 -21 -4 -5 4 -1 -9 7 -28 25 -59 278 -632 468 -1057 98 -221 179 -405 179
-408 0 -3 -874 -5 -1942 -5 l-1943 0 -129 583 c-72 320 -137 614 -146 652 -10
39 -25 106 -34 150 -10 44 -22 89 -27 100 l-10 20 6 -20 c5 -16 4 -18 -6 -7
-9 8 -10 15 -2 23 16 16 4 49 -15 42 -10 -4 -13 -2 -8 5 4 7 3 12 -3 12 -13 0
-18 -18 -13 -51 2 -16 8 -26 13 -23 5 3 6 -1 3 -9 -4 -11 254 -1208 313 -1454
l5 -23 -1946 0 -1946 0 0 770 c0 507 -3 770 -10 770 -5 0 -11 -10 -11 -22 l-2
-23 -4 22 c-2 13 -9 23 -14 23 -5 0 -9 -302 -9 -770 l0 -770 -1945 0 c-1070 0
-1945 2 -1945 4 0 3 70 320 155 706 86 386 153 705 150 710 -3 4 -1 10 3 12 5
1 12 20 15 40 5 30 3 36 -10 31 -13 -5 -13 -3 -2 15 10 15 16 18 21 9 5 -8 8
-8 8 -1 0 6 -8 18 -17 25 -11 10 -14 10 -9 1 4 -7 1 -12 -9 -12 -9 0 -13 -4
-10 -10 3 -5 2 -10 -3 -10 -5 0 -9 -6 -10 -12 -1 -7 -77 -348 -169 -758 l-168
-745 -1942 -3 c-1069 -1 -1943 0 -1943 3 0 2 108 249 241 547 347 783 408 921
411 938 2 8 9 21 16 28 6 7 12 20 12 28 0 8 -12 1 -30 -18 -16 -17 -30 -26
-30 -20 0 6 9 16 19 22 19 10 22 33 6 47 -4 4 -5 2 -1 -4 4 -8 2 -13 -6 -13
-11 0 -10 -2 0 -9 11 -7 11 -9 -2 -14 -22 -9 -37 -50 -22 -59 8 -5 7 -8 -2 -8
-7 0 -10 -5 -7 -10 4 -6 2 -9 -5 -8 -10 3 -141 -281 -496 -1080 l-166 -372
-1939 0 c-1067 0 -1939 2 -1939 5 0 2 207 315 460 695 254 380 464 697 467
705 5 14 -8 20 -30 16 -5 -1 -6 3 -2 9 4 6 12 7 24 0 23 -12 46 7 30 26 -7 8
-6 11 3 10 7 0 14 3 15 8 1 5 7 13 15 17 11 7 10 11 -2 20 -13 9 -13 10 2 6 9
-3 21 0 27 7 13 16 2 29 -13 17 -11 -9 -17 -11 -37 -11 -6 0 -9 -7 -6 -15 4
-8 1 -17 -5 -21 -7 -5 -8 -2 -3 7 12 21 -7 0 -39 -44 -15 -20 -24 -42 -20 -49
4 -6 3 -8 -3 -5 -11 7 -46 -39 -46 -60 0 -7 -3 -11 -6 -9 -3 2 -206 -296 -451
-661 -245 -366 -449 -667 -455 -669 -5 -2 -878 -3 -1939 -2 l-1928 3 462 520
c255 286 490 551 524 589 34 38 79 90 102 115 133 148 172 196 168 203 -3 5 0
7 6 6 7 -2 21 9 33 24 17 23 18 30 7 43 -7 9 -9 15 -4 14 26 -5 35 2 29 21 -4
12 -2 20 5 20 6 0 8 -5 5 -10 -3 -6 -1 -10 5 -10 6 0 8 -6 5 -12 -4 -7 3 -2
14 11 12 13 21 30 21 38 0 8 5 11 12 7 7 -4 8 -3 4 5 -9 14 -26 5 -26 -14 0
-9 -8 -12 -22 -10 -15 3 -30 -5 -50 -28 -28 -32 -89 -98 -156 -169 -20 -21
-33 -38 -30 -38 3 0 -16 -21 -41 -47 -56 -58 -49 -50 -659 -735 l-487 -547
-1935 -1 -1935 0 30 29 c17 15 275 248 575 516 300 269 552 496 561 504 9 9
34 32 55 51 21 19 109 98 194 174 85 77 164 147 174 157 17 16 18 20 5 36 -13
16 -12 17 3 4 16 -12 24 -8 68 29 37 31 48 46 40 55 -10 12 -4 25 12 25 5 0 6
-4 3 -10 -4 -6 1 -7 11 -3 11 4 13 8 6 11 -7 2 -10 8 -7 12 3 5 1 11 -5 15 -6
3 -13 -1 -16 -9 -3 -9 -11 -13 -17 -9 -6 3 -7 1 -3 -5 4 -7 2 -12 -5 -12 -7 0
-4 -7 7 -16 18 -15 18 -15 -4 -9 -13 4 -22 2 -22 -5 0 -6 -5 -8 -10 -5 -6 4
-30 -11 -53 -32 -24 -21 -72 -63 -107 -93 -71 -61 -282 -249 -555 -494 -99
-89 -313 -281 -475 -426 -162 -145 -338 -303 -390 -350 -52 -48 -109 -99 -126
-114 l-32 -26 -1926 2 -1926 3 938 703 c515 386 953 716 972 733 19 17 48 38
64 46 28 14 29 16 12 29 -16 11 -15 13 14 12 21 -1 36 5 42 16 5 9 13 14 17
11 5 -2 15 2 22 11 10 12 10 15 -1 12 -7 -2 -15 3 -18 11 -3 9 0 11 8 6 9 -5
11 -4 6 4 -5 8 -14 5 -31 -11 -14 -14 -19 -25 -13 -29 7 -4 6 -9 -1 -14 -7 -4
-18 -2 -25 4 -9 8 -19 5 -36 -14 -13 -13 -27 -22 -33 -18 -6 3 -7 2 -4 -3 3
-6 -6 -15 -21 -22 -15 -7 -40 -24 -57 -38 -16 -15 -24 -23 -16 -19 9 6 12 4 7
-4 -4 -6 -11 -9 -16 -6 -5 3 -134 -88 -287 -202 -548 -408 -1271 -948 -1452
-1084 l-184 -139 -1925 0 c-1059 0 -1923 2 -1921 3 2 2 371 239 819 527 1262
810 1222 784 1213 795 -5 4 -2 5 4 1 15 -9 86 37 75 49 -4 5 -2 5 5 1 7 -4 21
2 33 14 11 11 20 18 20 15 0 -3 9 -1 20 5 11 6 17 16 14 22 -5 7 -2 8 6 3 8
-5 20 1 32 16 11 13 17 19 13 12 -3 -7 12 0 35 14 22 15 40 31 40 35 0 5 4 7
9 4 5 -4 11 -3 13 1 1 5 19 16 38 26 59 30 85 53 70 62 -9 6 -11 4 -5 -5 5 -8
3 -11 -6 -8 -8 3 -13 10 -12 16 4 16 -24 3 -31 -14 -3 -8 -1 -14 4 -14 6 0 10
5 10 11 0 5 5 7 11 3 8 -4 4 -13 -12 -25 -17 -13 -26 -14 -31 -6 -5 8 -8 6 -8
-5 0 -10 -5 -18 -11 -18 -5 0 -8 4 -4 9 3 5 1 13 -5 16 -6 4 -10 3 -9 -2 3
-20 -2 -34 -11 -28 -6 4 -8 10 -5 15 3 5 -8 2 -25 -6 -16 -9 -30 -20 -30 -25
0 -6 -6 -7 -12 -3 -10 6 -10 4 0 -8 11 -14 10 -16 -6 -11 -28 7 -65 -15 -58
-34 5 -13 4 -14 -9 -3 -10 8 -15 9 -15 1 0 -6 -5 -11 -12 -11 -6 0 -26 -11
-44 -25 -18 -14 -35 -25 -37 -25 -3 0 -117 -72 -253 -159 -137 -88 -307 -197
-379 -242 -71 -46 -451 -289 -844 -541 l-715 -458 -1910 0 c-1050 0 -1907 2
-1905 4 2 2 387 219 854 481 468 263 1050 590 1295 728 245 138 474 267 510
287 36 20 175 99 310 175 399 224 470 265 565 317 50 28 100 59 113 71 12 11
22 17 22 13 0 -3 14 0 30 9 32 17 36 24 20 43 -5 7 -3 6 6 -2 14 -12 21 -11
50 6 36 21 42 33 22 42 -7 2 4 3 24 1 35 -3 70 17 55 32 -8 7 23 32 41 33 6 0
12 -5 12 -11 0 -5 -4 -8 -9 -5 -5 3 -15 -2 -22 -12 -12 -15 -12 -16 2 -5 9 7
19 10 22 6 4 -3 9 2 13 11 3 9 10 13 15 10 5 -3 6 2 3 10 -3 8 -12 17 -20 20
-9 3 -12 1 -9 -4 5 -9 -16 -15 -38 -11 -5 1 -5 -4 -1 -10 5 -9 2 -10 -10 -6
-11 5 -15 3 -10 -5 5 -7 2 -9 -8 -5 -9 3 -24 -1 -35 -9 -13 -10 -14 -14 -3
-12 8 2 18 8 22 13 12 15 10 -7 -2 -25 -5 -8 -10 -10 -10 -4 0 6 -8 10 -17 9
-29 -3 -84 -31 -76 -38 3 -4 -2 -7 -12 -7 -15 0 -551 -294 -1125 -618 -407
-229 -631 -352 -640 -352 -7 0 -9 464 -8 1487 l3 1487 757 350 c431 199 755
353 751 359 -3 6 -1 7 5 3 12 -7 174 61 180 76 2 4 8 6 13 2 5 -3 9 0 9 6 0 6
4 9 9 5 5 -3 16 2 25 10 8 9 19 15 23 15 14 -2 14 17 0 28 -11 9 -26 6 -68
-15 -30 -15 -58 -28 -64 -29 -5 -1 -73 -31 -150 -67 -151 -70 -672 -309 -1168
-536 -170 -78 -313 -141 -318 -141 -5 0 -9 583 -9 1491 l0 1490 33 14 c17 7
183 67 367 133 782 280 1257 451 1285 463 17 7 39 14 50 16 11 2 21 8 23 13 2
5 11 6 19 3 13 -5 15 -2 10 12 -6 14 -5 15 6 7 10 -8 16 -6 24 7 20 32 -4 40
-54 19 -15 -6 -32 -12 -38 -14 -5 -1 -390 -137 -855 -303 -464 -166 -850 -301
-857 -301 -11 0 -13 293 -13 1490 l0 1490 23 10 c12 5 348 93 747 195 399 102
775 199 835 215 116 32 116 32 182 45 23 4 44 14 47 21 3 8 11 14 18 14 9 0 9
-3 -2 -11 -12 -9 -12 -10 3 -5 10 3 23 6 28 6 6 0 9 8 7 17 -2 13 5 18 27 20
24 1 27 0 12 -8 -9 -6 -22 -7 -29 -3 -7 4 -8 3 -4 -4 10 -16 50 -8 54 10 4 19
-37 31 -55 16 -7 -6 -13 -7 -13 -2 0 4 -6 0 -13 -11 -10 -12 -16 -14 -21 -7
-4 7 -12 12 -17 12 -6 0 -8 -4 -5 -9 4 -5 -4 -7 -16 -3 -11 3 -19 1 -16 -4 4
-5 -8 -10 -25 -10 -29 -2 -507 -121 -1412 -354 -187 -48 -343 -85 -347 -83 -5
2 -8 675 -8 1494 l0 1489 23 8 c12 5 387 64 832 132 446 68 812 128 813 132 2
5 8 6 13 3 4 -3 31 -3 59 1 38 5 50 10 46 21 -4 11 -1 11 15 2 26 -13 81 -3
58 12 -9 5 -9 9 -2 9 6 0 15 -4 18 -10 12 -19 26 -10 20 13 -5 20 -5 20 9 -3
17 -28 22 -19 6 10 -9 17 -18 19 -58 13 -26 -3 -49 -9 -52 -12 -3 -3 -21 -7
-40 -7 -49 -2 -130 -14 -1200 -178 -300 -46 -548 -81 -552 -79 -5 2 -8 677 -8
1499 0 822 3 1494 8 1494 4 0 396 20 872 45 476 25 880 45 899 45 27 0 32 3
27 18 -5 15 -4 15 8 -2 11 -13 21 -16 33 -11 10 5 22 7 26 6 5 -1 5 4 1 11 -6
10 -3 9 9 0 14 -12 19 -12 32 2 15 15 14 16 -17 17 -31 1 -32 1 -8 10 20 6 17
7 -15 4 -22 -2 -44 -4 -48 -5 -5 0 -5 -5 -2 -11 5 -6 0 -6 -12 1 -15 10 -214
2 -908 -33 -489 -25 -893 -43 -897 -41 -12 8 -10 2994 2 2994 5 0 364 -18 797
-40 434 -22 835 -42 892 -45 75 -4 108 -2 119 7 13 11 14 11 7 -1 -6 -11 -3
-13 17 -8 14 4 28 4 32 0 10 -11 37 -12 30 -2 -3 5 0 9 5 9 6 0 2 9 -10 21
-18 18 -31 20 -107 19 -48 -1 -94 0 -102 3 -8 3 -388 24 -844 46 -456 23 -833
44 -838 47 -9 6 -12 2994 -3 2994 3 0 122 -18 263 -40 843 -131 1449 -219
1465 -214 11 4 17 2 14 -3 -6 -9 22 -13 98 -15 17 -1 33 -6 37 -12 5 -7 8 -4
8 7 0 9 5 17 11 17 5 0 8 -4 5 -9 -6 -10 24 -25 32 -16 3 3 0 5 -7 5 -7 0 -9
5 -6 10 3 6 0 10 -7 10 -10 0 -9 3 2 11 12 8 10 9 -9 4 -15 -5 -27 -2 -33 6
-8 11 -9 10 -4 -3 3 -12 1 -15 -9 -11 -8 3 -12 10 -8 16 4 6 0 8 -8 5 -8 -3
-23 -2 -34 2 -11 4 -26 3 -34 -4 -11 -8 -13 -8 -7 2 4 6 4 12 -1 12 -4 0 -93
14 -198 30 -104 17 -498 78 -874 136 -377 58 -688 107 -693 110 -9 6 -11 2977
-2 2986 3 3 143 -29 312 -72 169 -43 487 -124 707 -180 220 -55 478 -121 573
-146 95 -25 177 -42 182 -39 6 3 10 1 10 -6 0 -6 8 -9 20 -6 11 3 23 1 26 -5
3 -5 12 -7 20 -4 8 3 14 0 14 -6 0 -9 3 -9 12 0 10 10 10 15 -2 23 -13 9 -13
10 0 6 8 -2 14 -12 14 -21 -2 -17 5 -20 23 -8 22 14 -12 42 -55 45 -22 1 -37
6 -34 11 3 5 -2 7 -11 3 -10 -3 -17 -3 -17 1 0 5 -21 13 -47 18 -27 6 -208 52
-403 102 -195 51 -470 121 -610 157 -569 146 -725 187 -732 191 -9 6 -11 2978
-3 2986 3 3 72 -19 153 -47 1171 -418 1620 -577 1635 -578 9 -1 17 -5 17 -9 0
-4 5 -8 11 -8 5 0 7 6 4 13 -4 6 1 3 9 -7 9 -11 16 -16 16 -12 0 5 7 3 15 -4
10 -9 15 -9 15 -1 0 6 5 11 11 11 5 0 8 -4 4 -9 -3 -5 0 -13 6 -17 8 -5 9 -3
4 6 -5 9 -1 11 16 6 13 -3 18 -3 12 0 -7 3 -13 12 -13 20 0 9 -4 12 -10 9 -6
-3 -10 0 -10 7 0 10 -2 10 -9 -1 -6 -9 -11 -10 -15 -2 -8 13 -50 35 -86 46
-24 7 -24 7 -5 -8 11 -9 17 -19 12 -23 -4 -4 -7 -2 -7 4 0 7 -5 12 -11 12 -5
0 -7 -5 -3 -12 4 -7 3 -8 -5 -4 -6 4 -9 11 -7 15 14 22 61 3 -1019 391 -247
89 -515 185 -595 214 l-145 53 -3 1491 c-1 1105 1 1492 9 1492 6 0 84 -33 173
-74 1165 -534 1479 -675 1488 -670 6 4 8 3 5 -3 -4 -6 17 -21 51 -34 31 -13
77 -33 101 -45 24 -13 49 -20 56 -18 7 3 15 -2 18 -10 7 -18 33 -11 41 10 3 9
1 12 -4 9 -6 -3 -10 -3 -10 2 0 13 -53 34 -60 23 -3 -5 -11 -5 -20 0 -11 7
-12 10 -2 10 7 0 10 5 7 11 -5 7 -14 4 -26 -7 -11 -10 -19 -12 -19 -6 0 7 5
12 10 12 20 0 9 18 -17 28 -16 6 -426 195 -913 420 l-885 409 -3 1487 c-1
1144 1 1486 10 1486 6 0 93 -46 192 -102 100 -55 352 -197 561 -313 209 -117
469 -262 577 -323 109 -60 217 -120 240 -132 24 -11 50 -25 58 -30 8 -5 38
-22 66 -38 40 -24 55 -28 64 -19 9 8 11 8 7 1 -9 -17 29 -49 39 -33 4 7 3 10
-3 6 -5 -3 -10 0 -10 8 0 11 4 12 13 4 7 -6 11 -16 8 -23 -3 -8 2 -16 10 -19
9 -4 16 -1 16 5 0 7 5 5 13 -4 6 -9 26 -24 42 -34 l30 -18 -24 27 c-14 15 -21
30 -17 34 4 4 11 1 16 -7 6 -9 10 -10 10 -3 0 12 -61 53 -85 57 -8 1 -22 9
-32 17 -10 7 -29 20 -42 27 -13 8 -38 22 -55 32 -101 58 -1057 596 -2136 1203
-685 384 -1308 735 -1385 778 l-140 79 1912 0 1913 0 347 -223z m9313 -1301
c0 -2 -8 -10 -17 -17 -16 -13 -17 -12 -4 4 13 16 21 21 21 13z m35997 -11 c0
-8 -4 -12 -9 -9 -5 3 -6 10 -3 15 9 13 12 11 12 -6z m-21604 -20 c-3 -9 -8
-14 -10 -11 -3 3 -2 9 2 15 9 16 15 13 8 -4z m7214 -7 c-3 -8 -6 -5 -6 6 -1
11 2 17 5 13 3 -3 4 -12 1 -19z m-28782 3 c3 -5 2 -12 -3 -15 -5 -3 -9 1 -9 9
0 17 3 19 12 6z m46742 -2 c-9 -6 -14 -15 -11 -21 4 -7 2 -8 -5 -4 -14 9 3 36
23 36 6 0 3 -5 -7 -11z m-43097 -27 c20 -5 51 -33 47 -45 -4 -12 -22 -10 -23
3 -1 6 -2 14 -3 20 0 5 -7 7 -15 4 -8 -3 -20 4 -28 15 -8 12 -18 18 -23 13 -5
-4 -5 -1 0 7 7 12 10 12 19 0 6 -8 18 -15 26 -17z m3570 -2 c0 -5 -2 -10 -4
-10 -3 0 -8 5 -11 10 -3 6 -1 10 4 10 6 0 11 -4 11 -10z m3619 -3 c8 -11 6
-13 -9 -12 -11 1 -23 5 -27 10 -5 4 -2 5 5 1 6 -4 12 -2 12 3 0 15 5 14 19 -2z
m17941 -3 c0 -8 -19 -13 -24 -6 -3 5 1 9 9 9 8 0 15 -2 15 -3z m14330 -5 c0 8
3 12 6 8 3 -3 -4 -20 -17 -38 -12 -18 -25 -27 -27 -21 -2 7 -9 9 -14 6 -7 -4
-8 -2 -4 4 4 6 14 8 22 5 10 -4 15 -1 14 8 -1 8 -2 21 -1 29 1 13 2 13 11 0 8
-12 10 -12 10 -1z m-10752 -21 c-3 -7 -13 -15 -24 -17 -16 -3 -17 -1 -5 13 16
19 34 21 29 4z m-21486 -21 c12 -23 2 -21 -24 2 -17 17 -18 19 -3 17 9 -1 21
-10 27 -19z m39361 9 c4 -10 1 -13 -8 -9 -8 3 -12 9 -9 14 7 12 11 11 17 -5z
m-56208 -1828 l1575 -723 0 -1499 c0 -1422 -1 -1498 -17 -1494 -10 3 -301 107
-648 231 -346 124 -1042 372 -1545 552 -503 180 -930 333 -947 340 l-33 14 0
1657 0 1656 20 -5 c12 -3 729 -331 1595 -729z m63915 -924 l0 -1655 -32 -14
c-18 -7 -348 -126 -733 -263 -608 -218 -1114 -399 -2158 -773 -137 -49 -253
-89 -258 -89 -5 0 -9 576 -9 1498 l0 1497 108 50 c166 76 223 102 747 342 66
30 192 88 280 129 1271 586 2032 933 2043 934 9 0 12 -338 12 -1656z m-3665
16 c-3 -5 -14 -10 -23 -10 -15 0 -15 -2 -2 -10 9 -6 10 -10 3 -10 -23 0 -24
20 -1 29 30 13 30 13 23 1z m-77 -47 c-6 -7 -14 -10 -19 -7 -15 9 -10 20 10
20 15 0 17 -3 9 -13z m-56623 -642 c3 -5 0 -13 -6 -17 -7 -4 -9 -3 -5 4 3 5 0
13 -6 15 -9 4 -10 6 -1 6 6 1 14 -3 18 -8z m-3584 -1606 c855 -306 1566 -560
1582 -566 l27 -11 0 -1499 c0 -825 -3 -1499 -6 -1499 -5 0 -304 76 -1039 265
-198 51 -1418 362 -1885 481 -118 30 -225 59 -237 64 l-23 10 0 1655 c0 1359
2 1655 13 1655 7 0 713 -250 1568 -555z m63949 -1100 l0 -1655 -22 -10 c-13
-5 -331 -88 -708 -184 -708 -181 -909 -232 -1876 -480 -315 -80 -575 -146
-578 -146 -3 0 -5 676 -4 1501 l3 1501 135 49 c74 26 407 145 740 263 333 119
981 350 1440 515 459 165 843 300 853 300 16 1 17 -84 17 -1654z m-60425 -133
c-3 -3 -11 0 -18 7 -9 10 -8 11 6 5 10 -3 15 -9 12 -12z m-3975 -1873 c586
-149 1169 -298 1295 -330 127 -33 350 -89 498 -127 l267 -67 0 -1502 0 -1502
-27 4 c-26 5 -1625 250 -2648 406 -253 38 -472 72 -487 75 l-28 6 0 1657 c0
912 3 1660 6 1664 3 3 18 1 32 -3 15 -5 506 -131 1092 -281z m64400 -1378 l0
-1659 -27 -6 c-16 -3 -399 -62 -853 -131 -454 -70 -1158 -178 -1565 -240 -407
-63 -741 -113 -742 -111 -2 1 -3 677 -3 1502 l0 1499 147 37 c82 21 387 99
678 173 793 202 1379 352 1875 479 245 63 455 115 468 115 l22 1 0 -1659z
m-3665 759 c3 -6 -1 -7 -9 -4 -18 7 -21 14 -7 14 6 0 13 -4 16 -10z m-35 -20
c-8 -5 -19 -10 -25 -10 -5 0 -3 5 5 10 8 5 20 10 25 10 6 0 3 -5 -5 -10z
m-61095 -2565 c1524 -233 2449 -376 2452 -379 2 -1 2 -677 1 -1502 l-3 -1499
-435 22 c-239 12 -932 47 -1540 78 -608 30 -1129 58 -1157 61 l-53 5 0 1658
c0 912 3 1660 6 1663 3 3 13 4 22 2 9 -2 328 -52 707 -109z m64795 -1555 l0
-1659 -42 -5 c-24 -3 -725 -39 -1558 -81 -833 -41 -1532 -77 -1552 -79 l-38
-4 0 1503 0 1503 63 10 c34 6 305 48 602 93 297 45 983 151 1525 234 542 83
988 150 993 148 4 -2 7 -751 7 -1663z m-63925 -1795 c836 -42 1535 -78 1553
-81 l32 -5 0 -1499 0 -1498 -62 -6 c-35 -3 -380 -22 -768 -41 -388 -19 -1055
-53 -1483 -75 -429 -22 -801 -40 -828 -40 l-49 0 0 1658 c0 912 2 1661 4 1663
3 3 22 3 43 2 21 -2 722 -37 1558 -78z m63923 -1583 l2 -1662 -57 0 c-32 0
-139 5 -238 10 -213 12 -2257 116 -2560 130 -115 6 -238 13 -272 16 l-63 6 0
1498 0 1499 33 5 c17 3 496 28 1062 57 567 28 1264 63 1550 79 286 15 525 26
530 25 7 -1 11 -566 13 -1663z m-62338 -3057 c0 -997 -3 -1505 -10 -1505 -5 0
-288 -43 -627 -95 -340 -52 -1045 -160 -1566 -240 -521 -80 -957 -145 -968
-145 -19 0 -19 21 -17 1663 l3 1662 265 13 c210 11 2808 146 2898 151 l22 1 0
-1505z m60835 1416 l1500 -76 3 -1663 c2 -1644 2 -1662 -17 -1662 -11 0 -474
70 -1028 155 -1428 218 -2127 325 -2136 325 -4 0 -7 677 -7 1504 l0 1504 93
-5 c50 -3 767 -40 1592 -82z m-60837 -4473 l-3 -1502 -345 -88 c-190 -48 -520
-133 -735 -187 -214 -55 -682 -174 -1040 -266 -357 -91 -737 -188 -844 -215
-106 -28 -200 -50 -207 -50 -12 0 -14 258 -14 1660 l0 1660 23 5 c12 2 467 73
1012 156 545 83 1244 191 1555 239 311 48 573 88 583 89 16 1 17 -75 15 -1501z
m60135 1352 c534 -82 1240 -190 1567 -240 327 -50 605 -93 618 -95 l22 -5 0
-1660 c0 -1437 -2 -1660 -14 -1660 -8 0 -174 41 -368 90 -194 50 -531 136
-748 192 -217 55 -525 134 -685 175 -159 40 -519 132 -800 203 -280 72 -523
134 -540 138 l-30 8 -3 1502 c-1 826 0 1502 3 1502 3 0 443 -67 978 -150z
m-60133 -4410 c0 -825 -2 -1500 -4 -1500 -2 0 -458 -162 -1013 -361 -1831
-655 -2151 -769 -2162 -769 -8 0 -11 484 -11 1659 0 1572 1 1660 18 1665 9 3
417 107 907 232 1111 283 1681 429 1990 509 132 34 248 63 258 64 16 1 17 -77
17 -1499z m59482 1420 c1166 -298 2052 -525 2413 -617 231 -58 426 -111 433
-116 16 -13 18 -3317 1 -3317 -10 0 -199 67 -1414 502 -214 77 -691 247 -1060
378 -368 131 -678 241 -687 245 -17 7 -18 88 -18 1506 0 979 3 1499 10 1499 5
0 150 -36 322 -80z m-59489 -5971 c-11 -11 -3162 -1459 -3174 -1459 -5 0 -9
635 -9 1656 l0 1655 43 18 c23 10 359 132 747 270 388 138 1085 388 1550 554
l845 302 3 -1494 c1 -822 -1 -1498 -5 -1502z m59557 2856 c113 -40 230 -82
260 -94 30 -11 603 -216 1273 -456 670 -239 1227 -440 1238 -445 19 -11 19
-43 19 -1665 0 -974 -4 -1655 -9 -1655 -9 0 -315 140 -1456 665 -308 142 -607
279 -665 305 -58 26 -276 126 -485 222 -209 96 -424 195 -477 219 l-98 44 -2
1498 c-2 824 -1 1500 0 1502 2 2 47 -12 100 -32 54 -19 189 -68 302 -108z
m-59557 -5906 c-5 -4 -341 -194 -748 -422 -407 -228 -1117 -627 -1579 -886
-461 -259 -843 -471 -847 -471 -5 0 -9 726 -9 1650 l0 1650 63 31 c34 16 751
346 1592 733 l1530 703 3 -1490 c1 -820 -1 -1494 -5 -1498z m59552 2811 c204
-94 390 -181 415 -192 25 -11 108 -50 185 -85 77 -36 586 -270 1130 -520 545
-251 1007 -464 1028 -474 l37 -19 0 -1650 c0 -918 -4 -1650 -9 -1650 -4 0
-550 304 -1212 676 -662 372 -1301 730 -1419 796 -118 66 -290 163 -382 215
l-168 94 0 1496 c0 1192 3 1494 13 1490 6 -3 179 -83 382 -177z m-57584 -1763
c-10 -9 -11 -8 -5 6 3 10 9 15 12 12 3 -3 0 -11 -7 -18z m42005 -632 c1 -8 -2
-13 -7 -9 -5 3 -9 12 -9 20 0 9 -5 12 -12 8 -7 -5 -8 -3 -3 5 9 15 27 0 31
-24z m-35942 17 c3 -5 -1 -9 -9 -9 -8 0 -12 4 -9 9 3 4 7 8 9 8 2 0 6 -4 9 -8z
m50356 -17 c0 -1 -7 -8 -15 -15 -13 -10 -15 -9 -15 8 0 15 5 20 15 16 8 -4 15
-7 15 -9z m-7164 -17 c5 4 6 3 2 -2 -4 -5 -3 -15 4 -23 8 -10 8 -12 -3 -8 -8
3 -21 15 -28 28 -13 19 -12 21 1 10 8 -7 19 -9 24 -5z m3579 2 c3 -5 1 -10 -4
-10 -6 0 -11 5 -11 10 0 6 2 10 4 10 3 0 8 -4 11 -10z m-50445 -4 c0 -2 -6 -9
-14 -15 -11 -9 -16 -9 -22 0 -4 7 -3 9 4 5 6 -3 13 -2 17 4 6 10 15 14 15 6z
m36065 -26 c-3 -5 0 -10 7 -12 8 -3 6 -7 -5 -11 -10 -4 -16 -2 -14 6 1 7 -3
11 -10 10 -6 -1 -14 4 -17 13 -3 8 -2 12 4 9 6 -3 10 -1 10 6 0 8 4 8 15 -1 8
-7 13 -16 10 -20z m-28842 7 c-3 -5 -12 -6 -21 -2 -10 4 -23 -3 -35 -17 -18
-22 -14 -6 5 18 10 13 59 14 51 1z m32431 5 c3 -5 -1 -9 -9 -9 -8 0 -12 4 -9
9 3 4 7 8 9 8 2 0 6 -4 9 -8z m-28900 -58 c3 -8 2 -12 -4 -9 -6 3 -10 10 -10
16 0 14 7 11 14 -7z m36196 12 c0 -2 -8 -10 -17 -17 -16 -13 -17 -12 -4 4 13
16 21 21 21 13z m37 -41 c0 -8 -4 -12 -9 -9 -5 3 -6 10 -3 15 9 13 12 11 12
-6z"/>
<path d="M64184 36619 c-5 -8 -3 -9 6 -4 9 5 11 4 6 -4 -4 -6 -12 -9 -17 -5
-6 3 -17 -2 -25 -12 -9 -11 -12 -13 -8 -5 4 9 3 12 -4 7 -6 -4 -9 -13 -6 -21
4 -8 10 -13 14 -10 5 3 12 0 16 -6 4 -8 3 -9 -4 -5 -7 4 -12 2 -12 -6 0 -7 -7
-2 -16 10 l-16 23 -16 -23 c-9 -13 -16 -25 -15 -28 1 -3 -6 -13 -15 -23 -15
-17 -15 -17 1 -11 9 3 17 10 17 16 0 5 6 6 13 2 8 -5 8 -2 -2 9 -8 10 -9 17
-3 17 6 0 14 -4 17 -10 7 -12 65 15 65 30 0 6 3 9 8 8 4 -1 17 2 30 6 27 9 25
23 -5 43 -16 11 -23 11 -29 2z m-57 -74 c0 -8 -4 -12 -9 -9 -4 3 -8 9 -8 15 0
5 4 9 8 9 5 0 9 -7 9 -15z"/>
<path d="M64035 36530 c-21 -16 -32 -30 -25 -30 7 0 10 -6 7 -14 -4 -9 0 -13
11 -12 9 2 17 7 17 12 0 5 4 16 10 24 8 13 7 13 -8 1 -9 -7 -17 -9 -17 -3 0
12 25 33 32 26 3 -2 8 2 11 11 9 21 5 19 -38 -15z"/>
<path d="M63956 36477 c3 -10 9 -15 12 -12 3 3 0 11 -7 18 -10 9 -11 8 -5 -6z"/>
<path d="M63916 36451 c-4 -5 -2 -12 3 -15 5 -4 12 -2 15 3 4 5 2 12 -3 15 -5
4 -12 2 -15 -3z"/>
<path d="M63855 36421 c-3 -5 -2 -12 3 -15 5 -3 9 1 9 9 0 17 -3 19 -12 6z"/>
<path d="M63906 36417 c3 -10 9 -15 12 -12 3 3 0 11 -7 18 -10 9 -11 8 -5 -6z"/>
<path d="M63875 36390 c-3 -6 1 -7 9 -4 18 7 21 14 7 14 -6 0 -13 -4 -16 -10z"/>
<path d="M9966 36383 c-3 -3 -6 -15 -6 -25 0 -13 7 -18 26 -18 20 0 25 -4 20
-16 -3 -8 -2 -12 3 -9 6 3 14 -2 19 -11 5 -10 18 -18 28 -19 11 0 26 -5 34
-10 20 -13 40 -15 40 -5 0 17 -28 29 -54 24 -18 -3 -25 -1 -21 6 3 5 14 10 23
11 14 0 14 2 2 6 -8 3 -36 21 -61 39 -25 19 -49 31 -53 27z m34 -23 c8 -5 11
-10 5 -10 -5 0 -17 5 -25 10 -8 5 -10 10 -5 10 6 0 17 -5 25 -10z m55 -42 c4
-3 2 -9 -3 -12 -5 -3 -15 1 -21 8 -10 11 -9 14 3 12 9 -1 18 -5 21 -8z m55
-38 c0 -5 -2 -10 -4 -10 -3 0 -8 5 -11 10 -3 6 -1 10 4 10 6 0 11 -4 11 -10z"/>
<path d="M24320 36339 c-12 -8 -9 -9 13 -5 15 4 27 2 27 -4 0 -5 -3 -9 -7 -9
-21 3 -33 -2 -27 -12 4 -8 9 -7 15 2 5 8 9 10 10 4 3 -33 10 -50 30 -69 12
-12 18 -15 15 -8 -4 7 -3 19 4 27 9 10 7 16 -7 24 -10 6 -15 11 -10 11 12 0
-24 50 -37 50 -6 0 -18 -5 -26 -11z m55 -29 c3 -5 1 -10 -4 -10 -6 0 -11 5
-11 10 0 6 2 10 4 10 3 0 8 -4 11 -10z m9 -26 c9 -3 13 -10 10 -15 -8 -14 -21
-11 -28 6 -6 17 -4 18 18 9z"/>
<path d="M45796 36320 c-17 -30 -23 -56 -6 -30 9 13 10 13 11 0 1 -8 1 -19 0
-25 -1 -5 10 4 24 20 30 36 31 51 6 58 -12 3 -23 -4 -35 -23z m44 3 c0 -5 -7
-16 -14 -26 -13 -16 -14 -16 -20 -1 -4 10 -1 21 6 26 16 10 28 10 28 1z"/>
<path d="M56550 36348 c-2 -5 -3 -11 -4 -15 -1 -5 -5 -15 -10 -23 -7 -11 -4
-11 9 2 9 9 15 22 12 30 -3 7 -6 10 -7 6z"/>
<path d="M56570 36340 c0 -6 4 -9 9 -6 5 4 12 1 14 -4 3 -6 4 -5 3 2 -3 15
-26 23 -26 8z"/>
<path d="M31515 36309 c5 -38 11 -45 18 -24 4 8 2 15 -4 15 -6 0 -8 9 -4 20 3
11 2 20 -4 20 -5 0 -8 -14 -6 -31z"/>
<path d="M56513 36318 c-4 -7 -8 -16 -9 -20 -1 -5 -2 -11 -3 -15 -1 -5 -5 -2
-10 5 -7 11 -9 10 -14 -3 -4 -9 -3 -13 3 -10 6 3 10 0 10 -7 1 -9 4 -8 13 3 7
9 19 14 27 12 12 -4 13 -3 1 5 -8 6 -11 17 -8 26 8 19 1 21 -10 4z"/>
<path d="M27932 36309 c-19 -7 -23 -29 -6 -29 3 0 2 5 -1 10 -3 6 3 10 14 10
12 0 21 -5 21 -12 0 -6 3 -9 6 -5 3 3 2 12 -3 20 -6 11 -14 12 -31 6z"/>
<path d="M31490 36299 c7 -11 14 -19 16 -16 7 7 -7 37 -17 37 -6 0 -5 -9 1
-21z"/>
<path d="M38641 36313 c-1 -18 19 -27 32 -13 9 10 8 12 -5 7 -9 -3 -19 -1 -22
6 -3 9 -5 9 -5 0z"/>
<path d="M42233 36281 c0 -11 5 -18 9 -15 4 3 5 11 1 19 -7 21 -12 19 -10 -4z"/>
<path d="M60034 36278 c-13 -16 -14 -19 -2 -10 11 9 18 10 23 2 4 -7 12 -7 24
0 10 5 22 6 27 2 5 -4 2 1 -5 11 -14 17 -27 24 -17 8 3 -5 -1 -11 -9 -15 -8
-3 -17 -1 -20 4 -3 4 1 11 7 13 8 3 8 6 2 6 -6 1 -19 -9 -30 -21z"/>
<path d="M27936 36273 c-6 -14 -5 -15 5 -6 7 7 10 15 7 18 -3 3 -9 -2 -12 -12z"/>
<path d="M52886 36257 c3 -10 9 -15 12 -12 3 3 0 11 -7 18 -10 9 -11 8 -5 -6z"/>
<path d="M10144 36249 c3 -17 33 -20 33 -3 0 10 -4 11 -13 3 -8 -7 -14 -6 -17
1 -3 6 -5 6 -3 -1z"/>
<path d="M13696 36239 c3 -5 9 -7 14 -4 5 3 11 1 15 -5 3 -5 12 -10 18 -10 7
0 3 6 -8 12 -25 15 -47 19 -39 7z"/>
<path d="M45742 36245 c4 -5 3 -14 -3 -21 -7 -8 -7 -14 1 -19 6 -4 9 -1 8 7
-2 7 5 12 15 12 23 -2 22 3 -5 17 -13 6 -20 8 -16 4z"/>
<path d="M56426 36238 c3 -5 10 -6 15 -3 13 9 11 12 -6 12 -8 0 -12 -4 -9 -9z"/>
<path d="M56455 36229 c-4 -6 -5 -12 -2 -15 2 -3 7 2 10 11 7 17 1 20 -8 4z"/>
<path d="M20863 36211 c0 -11 5 -18 9 -15 4 3 5 11 1 19 -7 21 -12 19 -10 -4z"/>
<path d="M52855 36220 c-3 -6 1 -7 9 -4 18 7 21 14 7 14 -6 0 -13 -4 -16 -10z"/>
<path d="M56406 36213 c-6 -14 -5 -15 5 -6 7 7 10 15 7 18 -3 3 -9 -2 -12 -12z"/>
<path d="M13796 36202 c-3 -5 1 -9 9 -9 8 0 12 4 9 9 -3 4 -7 8 -9 8 -2 0 -6
-4 -9 -8z"/>
<path d="M7494 35753 c3 -20 31 -30 40 -14 4 5 -3 7 -16 3 -14 -3 -19 -1 -14
6 3 6 2 13 -3 16 -5 4 -8 -2 -7 -11z"/>
<path d="M7525 35720 c-13 -6 -15 -9 -5 -9 8 0 22 4 30 9 18 12 2 12 -25 0z"/>
<path d="M7535 35690 c3 -5 8 -10 11 -10 2 0 4 5 4 10 0 6 -5 10 -11 10 -5 0
-7 -4 -4 -10z"/>
<path d="M64019 33533 c0 -5 -2 -15 -4 -24 -1 -9 4 -16 11 -16 8 0 14 4 14 9
0 4 -4 8 -10 8 -5 0 -7 7 -4 15 4 8 3 15 0 15 -3 0 -6 -3 -7 -7z"/>
<path d="M63940 33487 c0 -5 12 -6 26 -3 18 5 24 3 18 -5 -5 -8 -3 -9 5 -5 7
5 9 11 6 15 -10 9 -55 8 -55 -2z"/>
<path d="M7535 32880 c-4 -6 -10 -8 -14 -6 -4 3 -13 0 -21 -5 -13 -9 -13 -10
0 -6 8 2 22 -2 31 -10 14 -12 17 -12 22 1 4 11 1 13 -11 9 -15 -6 -15 -5 -3
10 7 9 11 17 8 17 -3 0 -9 -5 -12 -10z"/>
<path d="M7564 32849 c-3 -6 -3 -13 0 -16 3 -4 6 -1 6 5 0 6 7 9 15 6 8 -4 15
-4 15 -1 0 11 -30 16 -36 6z"/>
<path d="M7614 32849 c-3 -6 -2 -15 3 -20 5 -5 9 -1 9 11 0 23 -2 24 -12 9z"/>
<path d="M64065 30539 c8 -24 8 -24 -14 -5 -17 16 -21 16 -16 4 9 -22 31 -30
43 -15 7 8 5 17 -5 26 -13 12 -14 11 -8 -10z"/>
<path d="M64014 30516 c1 -8 5 -18 8 -22 4 -3 5 1 4 10 -1 8 -5 18 -8 22 -4 3
-5 -1 -4 -10z"/>
<path d="M63964 30503 c16 -20 36 -23 36 -6 0 4 -3 3 -7 0 -3 -4 -16 1 -27 10
-21 18 -21 18 -2 -4z"/>
<path d="M7490 30056 c0 -2 7 -7 16 -10 8 -3 12 -2 9 4 -6 10 -25 14 -25 6z"/>
<path d="M7530 30040 c0 -5 5 -10 11 -10 5 0 7 5 4 10 -3 6 -8 10 -11 10 -2 0
-4 -4 -4 -10z"/>
<path d="M7502 30021 c-11 -7 -11 -9 0 -14 9 -3 15 1 15 9 0 8 -1 14 -1 14 -1
0 -7 -4 -14 -9z"/>
<path d="M7530 30011 c0 -19 22 -23 36 -7 8 9 9 11 2 6 -16 -13 -31 -13 -23 0
3 6 1 10 -4 10 -6 0 -11 -4 -11 -9z"/>
<path d="M64045 27550 c4 -6 -3 -9 -16 -7 -12 1 -24 -4 -26 -13 -3 -11 -2 -12
5 -2 5 7 16 10 26 6 17 -6 16 -8 -5 -20 -30 -17 -19 -18 16 -2 18 8 22 14 13
20 -11 6 -10 8 0 8 7 0 10 5 7 10 -3 6 -11 10 -16 10 -6 0 -7 -4 -4 -10z"/>
<path d="M7534 27185 c8 -8 18 -15 22 -15 3 0 1 7 -6 15 -7 8 -17 15 -22 15
-5 0 -3 -7 6 -15z"/>
<path d="M7513 27157 c-3 -7 -3 -9 2 -5 4 4 16 3 26 -3 11 -5 19 -6 19 -1 0
15 -39 22 -47 9z"/>
<path d="M64016 24545 c-3 -8 -1 -15 4 -15 6 0 10 7 10 15 0 8 -2 15 -4 15 -2
0 -6 -7 -10 -15z"/>
<path d="M7528 24343 c6 -2 18 -2 25 0 6 3 1 5 -13 5 -14 0 -19 -2 -12 -5z"/>
<path d="M7535 24319 c-11 -17 1 -21 15 -4 8 9 8 15 2 15 -6 0 -14 -5 -17 -11z"/>
<path d="M7502 21480 c-3 -8 -7 -18 -9 -22 -5 -9 25 -4 34 7 4 4 2 5 -4 1 -8
-4 -13 -1 -13 7 0 10 7 13 20 10 11 -3 20 -1 20 5 0 16 -42 10 -48 -8z"/>
<path d="M7528 18622 c-4 -16 -1 -18 21 -13 19 4 21 6 8 9 -9 2 -15 8 -12 13
4 5 2 9 -3 9 -5 0 -12 -8 -14 -18z"/>
<path d="M7495 18610 c-3 -5 -1 -10 4 -10 6 0 11 5 11 10 0 6 -2 10 -4 10 -3
0 -8 -4 -11 -10z"/>
<path d="M7542 15799 c-13 -5 -29 -6 -35 -2 -8 4 -8 2 0 -9 7 -8 10 -18 6 -21
-3 -4 -12 1 -20 11 -13 15 -13 15 -3 -5 14 -29 16 -29 52 7 16 17 28 30 26 29
-2 0 -14 -4 -26 -10z"/>
<path d="M7540 15770 c0 -5 5 -10 11 -10 5 0 7 5 4 10 -3 6 -8 10 -11 10 -2 0
-4 -4 -4 -10z"/>
<path d="M63952 15570 c0 -14 2 -19 5 -12 2 6 2 18 0 25 -3 6 -5 1 -5 -13z"/>
<path d="M63970 15586 c0 -2 7 -7 16 -10 8 -3 12 -2 9 4 -6 10 -25 14 -25 6z"/>
<path d="M64035 15559 c-4 -6 -5 -12 -2 -15 2 -3 7 2 10 11 7 17 1 20 -8 4z"/>
<path d="M7582 12951 c-11 -7 -10 -9 3 -14 9 -4 14 -3 10 2 -3 5 1 12 7 14 7
3 9 6 3 6 -5 0 -16 -3 -23 -8z"/>
<path d="M7528 12923 c6 -2 9 -10 6 -15 -4 -7 -2 -8 5 -4 13 9 5 26 -12 25 -9
0 -8 -2 1 -6z"/>
<path d="M64103 12561 c1 -16 6 -20 22 -15 16 4 17 3 5 -5 -8 -5 -11 -13 -8
-16 4 -4 17 0 30 9 12 9 17 16 10 16 -8 0 -10 5 -6 12 5 8 2 9 -11 5 -9 -4
-23 -2 -31 4 -10 8 -13 6 -11 -10z"/>
<path d="M64026 12561 c-3 -5 1 -12 10 -15 22 -8 25 -4 9 11 -8 7 -16 9 -19 4z"/>
<path d="M64066 12558 c3 -5 10 -6 15 -3 13 9 11 12 -6 12 -8 0 -12 -4 -9 -9z"/>
<path d="M7525 10094 c-11 -8 -25 -12 -32 -10 -7 3 -15 1 -18 -5 -4 -5 -11 -7
-16 -4 -5 4 -9 1 -9 -4 0 -6 -3 -11 -7 -10 -20 3 -54 -15 -49 -26 2 -7 -1 -18
-7 -25 -10 -10 -8 -12 8 -6 68 23 106 43 111 59 4 12 11 16 22 12 9 -3 13 -3
9 1 -4 4 -2 13 4 21 15 17 9 16 -16 -3z m-30 -23 c3 -5 -8 -16 -25 -24 -17 -9
-32 -11 -36 -6 -3 5 1 9 9 9 8 0 20 7 27 15 15 18 17 18 25 6z m-70 -41 c3 -5
1 -10 -4 -10 -6 0 -11 5 -11 10 0 6 2 10 4 10 3 0 8 -4 11 -10z"/>
<path d="M7550 10086 c0 -2 7 -7 16 -10 8 -3 12 -2 9 4 -6 10 -25 14 -25 6z"/>
<path d="M63960 9626 c0 -2 7 -7 16 -10 8 -3 12 -2 9 4 -6 10 -25 14 -25 6z"/>
<path d="M64010 9606 c0 -2 6 -16 14 -30 8 -17 15 -22 18 -14 3 7 -4 21 -14
31 -10 9 -18 15 -18 13z"/>
<path d="M64040 9596 c0 -2 7 -7 16 -10 8 -3 12 -2 9 4 -6 10 -25 14 -25 6z"/>
<path d="M64072 9567 c-12 -7 -19 -16 -16 -20 11 -10 26 -9 20 2 -7 10 24 25
33 16 3 -3 -1 -10 -8 -14 -8 -5 -9 -11 -3 -15 11 -7 25 21 16 35 -7 12 -14 11
-42 -4z"/>
<path d="M64126 9555 c-3 -8 -1 -17 3 -20 5 -3 11 2 15 10 3 8 1 17 -3 20 -5
3 -11 -2 -15 -10z"/>
<path d="M7683 7315 c0 -8 4 -12 9 -9 5 3 6 10 3 15 -9 13 -12 11 -12 -6z"/>
<path d="M7538 7253 c7 -3 16 -2 19 1 4 3 -2 6 -13 5 -11 0 -14 -3 -6 -6z"/>
<path d="M7502 7238 c-14 -14 -16 -35 -3 -42 4 -3 8 4 7 17 -1 13 4 21 12 19
8 -1 11 2 7 8 -8 13 -8 13 -23 -2z"/>
<path d="M7560 7240 c-9 -6 -10 -10 -3 -10 6 0 15 5 18 10 8 12 4 12 -15 0z"/>
<path d="M7436 7204 c-8 -22 -9 -21 15 -27 17 -5 18 -3 7 10 -12 15 -11 15 10
4 22 -11 22 -11 10 8 -15 25 -34 27 -42 5z"/>
<path d="M7406 7195 c-8 -9 -19 -16 -23 -17 -45 -7 -50 -14 -30 -39 12 -16 42
-15 32 2 -4 5 0 6 8 3 18 -6 32 12 32 44 1 26 1 26 -19 7z"/>
<path d="M64008 6601 c5 -13 3 -14 -9 -4 -13 10 -16 10 -16 -2 0 -8 3 -13 5
-10 3 3 12 -1 20 -8 13 -9 14 -9 8 1 -4 7 -1 12 9 12 10 0 15 -7 13 -17 -2
-11 3 -18 13 -18 9 0 23 -5 30 -11 24 -18 42 -28 37 -18 -3 5 1 15 8 22 13 12
14 10 8 -14 -5 -19 -4 -25 5 -20 6 4 11 3 11 -3 0 -6 7 -7 17 -4 10 4 14 2 10
-4 -4 -6 1 -13 12 -16 10 -2 23 3 29 14 10 16 8 21 -18 34 -28 14 -35 13 -31
-8 1 -5 -3 -6 -8 -2 -6 3 -8 12 -4 20 5 13 -7 20 -29 16 -5 0 -8 4 -8 9 0 6
-5 10 -11 10 -5 0 -7 -5 -3 -11 4 -7 1 -10 -7 -7 -8 3 -13 11 -11 17 1 6 -1
10 -5 10 -23 -4 -43 2 -38 11 4 6 -1 7 -11 3 -10 -4 -15 -2 -11 4 3 5 0 10 -7
10 -9 0 -12 -7 -8 -16z m72 -36 c7 -9 20 -13 29 -10 13 5 13 4 4 -6 -10 -10
-16 -9 -30 3 -10 8 -24 13 -32 10 -8 -3 -11 0 -7 7 10 15 21 14 36 -4z m125
-53 c-3 -3 -11 0 -18 7 -9 10 -8 11 6 5 10 -3 15 -9 12 -12z"/>
<path d="M7575 4390 c3 -5 8 -10 11 -10 2 0 4 5 4 10 0 6 -5 10 -11 10 -5 0
-7 -4 -4 -10z"/>
<path d="M24346 3822 c-3 -4 4 -9 15 -9 23 -2 25 3 4 10 -8 4 -16 3 -19 -1z"/>
<path d="M60103 3815 c0 -7 6 -11 14 -8 7 3 13 6 13 8 0 2 -6 5 -13 8 -8 3
-14 -1 -14 -8z"/>
<path d="M60054 3808 c-4 -7 -3 -10 1 -5 5 4 18 -1 29 -10 21 -18 21 -18 2 5
-22 26 -23 26 -32 10z"/>
<path d="M45797 3799 c7 -7 15 -10 18 -7 3 3 -2 9 -12 12 -14 6 -15 5 -6 -5z"/>
<path d="M10000 3790 c-9 -6 -10 -10 -3 -10 6 0 15 5 18 10 8 12 4 12 -15 0z"/>
<path d="M52960 3796 c0 -2 8 -10 18 -17 15 -13 16 -12 3 4 -13 16 -21 21 -21
13z"/>
<path d="M45825 3780 c-3 -6 1 -7 9 -4 18 7 21 14 7 14 -6 0 -13 -4 -16 -10z"/>
<path d="M13564 3755 c0 -20 3 -22 18 -14 23 12 24 21 1 12 -10 -4 -14 -2 -9
5 3 6 3 13 -2 16 -4 2 -8 -6 -8 -19z"/>
<path d="M20775 3771 c-3 -6 -15 -8 -27 -6 -11 3 -18 1 -14 -2 12 -13 35 -11
47 3 6 8 9 14 6 14 -3 0 -8 -4 -12 -9z"/>
<path d="M53013 3759 c-13 -13 -6 -39 9 -39 6 0 5 6 -2 15 -12 14 -7 19 13 16
5 -1 6 3 2 9 -8 13 -9 12 -22 -1z"/>
<path d="M63730 3766 c0 -2 8 -10 18 -17 15 -13 16 -12 3 4 -13 16 -21 21 -21
13z"/>
<path d="M10008 3753 c7 -3 16 -2 19 1 4 3 -2 6 -13 5 -11 0 -14 -3 -6 -6z"/>
<path d="M24298 3738 c-10 -10 -15 -18 -10 -18 4 0 -1 -7 -11 -14 -10 -8 -14
-17 -9 -20 5 -3 15 6 23 20 12 23 14 24 21 7 7 -15 8 -14 4 4 -2 12 1 24 7 26
6 2 7 6 2 9 -6 2 -18 -3 -27 -14z"/>
<path d="M24337 3741 c-4 -17 -3 -21 5 -13 5 5 8 16 6 23 -3 8 -7 3 -11 -10z"/>
<path d="M42257 3747 c-3 -8 -1 -20 4 -28 6 -11 11 -11 21 -1 9 9 8 12 -7 12
-15 0 -17 2 -6 9 8 5 9 11 3 15 -5 3 -12 0 -15 -7z"/>
<path d="M45840 3756 c0 -2 7 -7 16 -10 8 -3 12 -2 9 4 -6 10 -25 14 -25 6z"/>
<path d="M20705 3739 c-4 -6 -5 -12 -2 -15 2 -3 7 2 10 11 7 17 1 20 -8 4z"/>
<path d="M38655 3740 c-8 -13 4 -32 16 -24 5 3 17 0 25 -7 12 -10 13 -9 8 5
-4 11 -14 16 -26 13 -14 -4 -18 -1 -14 9 6 16 0 19 -9 4z"/>
<path d="M56613 3734 c9 -11 15 -24 12 -27 -3 -4 -2 -5 2 -2 3 3 15 -3 26 -12
11 -10 17 -13 14 -6 -4 6 -2 15 4 18 6 5 3 13 -11 22 -12 8 -24 12 -27 9 -3
-3 -13 0 -22 6 -12 10 -12 7 2 -8z m42 -15 c11 -17 -1 -21 -15 -4 -8 9 -8 15
-2 15 6 0 14 -5 17 -11z"/>
<path d="M27907 3733 c-10 -10 -8 -23 4 -23 5 0 8 4 5 9 -4 5 0 12 6 14 7 3 8
6 2 6 -6 1 -14 -2 -17 -6z"/>
<path d="M31490 3726 c0 -17 16 -30 23 -19 3 5 -1 14 -9 21 -12 10 -14 10 -14
-2z"/>
<path d="M45851 3716 c-9 -10 -8 -16 4 -26 13 -11 15 -9 13 14 -3 30 -2 30
-17 12z"/>
<path d="M63816 3704 c-5 -14 -4 -15 9 -4 17 14 19 20 6 20 -5 0 -12 -7 -15
-16z"/>
<path d="M42263 3688 c2 -7 10 -12 17 -10 11 3 11 0 0 -12 -10 -13 -10 -16 4
-16 9 0 16 5 16 11 0 5 6 7 13 4 6 -4 1 3 -13 14 -28 23 -44 27 -37 9z"/>
</g>
</svg>
